<?xml version="1.0" encoding="utf-8"?>
<svg fill="#000000" width="50px" height="50px" viewBox="-1.5 0 19 19" class="cf-icon-svg" xmlns="http://www.w3.org/2000/svg">
  <path d="M15.917 1.666v15.833H.083V1.666zM2.392 12.269l3.795-2.433-3.795-2.798zm.98-5.492L7.078 9.51a1.668 1.668 0 0 0 1.824 0l3.704-2.732zm8.937 5.615-3.227-2.07a2.517 2.517 0 0 1-2.186 0l-3.23 2.07zm1.277-5.354L9.791 9.837l3.795 2.434z"/>
  <rect x="-0.998" y="0.514" width="17.997" height="0.676" style="fill: rgb(216, 216, 216); stroke: rgb(0, 0, 0);"/>
  <rect x="15.602" y="1.769" width="1.396" height="11.627" style="fill: rgb(216, 216, 216); stroke: rgb(0, 0, 0);"/>
  <rect x="15.973" y="10.255" width="0.524" height="2.312" style="fill: rgb(216, 216, 216); stroke: rgb(0, 0, 0);"/>
  <rect x="16.06" y="2.009" width="0.349" height="7.94" style="fill: rgb(216, 216, 216); stroke: rgb(0, 0, 0);"/>
  <rect x="16.148" y="13.527" width="0.85" height="4.952" style="fill: rgb(216, 216, 216); stroke: rgb(0, 0, 0);"/>
  <rect x="-0.998" y="2.108" width="0.872" height="16.383" style="fill: rgb(216, 216, 216); stroke: rgb(0, 0, 0);"/>
  <rect x="0.834" y="17.502" width="14.593" height="0.982" style="fill: rgb(216, 216, 216); stroke: rgb(0, 0, 0);"/>
</svg>